<svg viewBox="0 0 64 64">
                <path d="m62.618 45-5-10h-1.618v-34h-14v34h-19v-17.217l-4.676-10.286c-.413-.909-1.325-1.497-2.324-1.497s-1.911.588-2.324 1.496l-4.676 10.287v17.217h-2.618l-5 10h5.618v18h50v-18zm-18.618-14h6v-2h-6v-2h4v-2h-4v-2h6v-2h-6v-2h4v-2h-4v-2h6v-2h-6v-2h4v-2h-4v-2h6v-2h-6v-2h10v32h-10zm12.382 6 3 6h-21.764l-3-6zm-39.387-2v-15.132l2.002 1.333 2.003-1.334v15.133zm3.743-17.361-1.741 1.159-3.002-2.001-2.998 2-1.735-1.158 1.654-3.639h6.167zm-5.242-9.316c.18-.393.828-.394 1.008.001l1.67 3.676h-4.349zm-4.496 11.547 1.997 1.333 1.998-1.333v15.13h-3.995zm-3.382 17.13h21.764l-3 6h-21.764zm1.382 8h18.618l3.382-6.764v22.764h-22zm46 16h-22v-22.764l3.382 6.764h18.618z"></path>
                <path d="m19 57h2v2h-2z"></path>
                <path d="m11 57h2v2h-2z"></path>
                <path d="m15 57h2v2h-2z"></path>
                <path d="m11 53h10v2h-10z"></path>
                <path d="m28 9.657c0-1.465 1.192-2.657 2.657-2.657h.686c1.465 0 2.657 1.192 2.657 2.657 0 .709-.276 1.376-.778 1.879l-5.222 5.222v8.242h6v-5.758l3.464-3.464c1.636-1.635 2.536-3.809 2.536-6.121 0-4.773-3.884-8.657-8.657-8.657h-.686c-4.773 0-8.657 3.884-8.657 8.657v2.343h6zm-2 0v.343h-2v-.343c0-3.671 2.986-6.657 6.657-6.657h.686c3.671 0 6.657 2.986 6.657 6.657 0 1.777-.692 3.449-1.95 4.707l-4.05 4.05v4.586h-2v-5.414l4.637-4.636c.879-.881 1.363-2.051 1.363-3.293 0-2.568-2.089-4.657-4.657-4.657h-.686c-2.568 0-4.657 2.089-4.657 4.657z"></path>
                <path d="m28 30c0 1.654 1.346 3 3 3s3-1.346 3-3-1.346-3-3-3-3 1.346-3 3zm4 0c0 .552-.448 1-1 1s-1-.448-1-1 .448-1 1-1 1 .448 1 1z"></path>
              </svg>